<svg width="100" height="100" viewBox="0 0 100 100" fill="none" xmlns="http://www.w3.org/2000/svg">
<path d="M84.5246 67.4193L74.7071 81.5246L67.779 75.8386C67.0316 75.2228 65.9246 75.3351 65.3106 76.0807C64.6948 76.8299 64.8036 77.9369 65.5544 78.5492L73.9509 85.4421C74.2667 85.7018 74.6597 85.8421 75.0632 85.8421C75.1422 85.8421 75.2229 85.8369 75.3036 85.8246C75.7878 85.7579 76.2229 85.4913 76.5036 85.0895L87.4053 69.4246C87.9579 68.6299 87.7632 67.5369 86.9667 66.9825C86.1702 66.4211 85.079 66.6228 84.5246 67.4193Z" fill="#656565"/>
<path d="M89.4738 59.2526V58.7719V38.5965V37.7193V16.6667V15.7895C89.4738 15.4702 89.365 15.1877 89.2176 14.9298C87.1878 7.40351 72.0667 0 45.6141 0C19.1615 0 4.04042 7.40351 2.0106 14.9298C1.86323 15.1877 1.75446 15.4702 1.75446 15.7895V16.6667V37.7193V38.5965V58.7719V59.6491V80.7018C1.75446 80.986 1.82814 81.2544 1.95972 81.493C4.02989 90.0807 22.5685 96.4912 45.6141 96.4912C51.1685 96.4912 56.5738 96.1053 61.7124 95.3632C65.5369 98.2596 70.2825 100 75.4387 100C88.0141 100 98.2457 89.7684 98.2457 77.193C98.2457 69.9123 94.8036 63.4316 89.4738 59.2526ZM83.7703 55.9842C83.5246 55.8877 83.2773 55.8018 83.0299 55.7123C82.4843 55.5193 81.9299 55.3474 81.3667 55.1947C81.086 55.1193 80.8071 55.0421 80.5246 54.9772C79.9509 54.8456 79.3685 54.7456 78.779 54.6579C78.5194 54.6193 78.2632 54.5684 78.0018 54.5386C77.158 54.4456 76.3053 54.386 75.4387 54.386C74.7106 54.386 73.9931 54.4281 73.2808 54.4965C73.0439 54.5193 72.8124 54.5579 72.5773 54.586C72.1053 54.6456 71.6352 54.7123 71.172 54.8018C70.9036 54.8526 70.6404 54.9123 70.3773 54.9737C69.9474 55.0719 69.5229 55.1807 69.1018 55.3035C68.8457 55.3772 68.5895 55.4526 68.3369 55.5368C67.8948 55.6825 67.4597 55.8456 67.0299 56.0158C66.8211 56.0982 66.6088 56.1754 66.4036 56.2649C65.8229 56.5158 65.2545 56.7895 64.7001 57.086C64.6562 57.1105 64.6088 57.1298 64.5632 57.1544C63.9352 57.4965 63.3281 57.8684 62.7369 58.2649C62.672 58.3088 62.6106 58.3579 62.5457 58.4035C62.0369 58.7526 61.5439 59.1228 61.065 59.5123C60.9474 59.607 60.8369 59.707 60.7211 59.8053C60.3018 60.1614 59.8948 60.5298 59.5018 60.914C59.3825 61.0316 59.265 61.1491 59.1474 61.2702C58.7702 61.6561 58.4071 62.0561 58.058 62.4702C57.9509 62.5965 57.8422 62.7193 57.7387 62.8474C57.3843 63.2842 57.0509 63.7333 56.7281 64.1965C56.6474 64.3123 56.5615 64.4228 56.4843 64.5386C56.1036 65.1088 55.7404 65.6947 55.4106 66.3035C55.3843 66.3509 55.3632 66.4 55.3369 66.4474C55.0439 66.9965 54.7702 67.5614 54.5211 68.1386C54.3755 68.4737 54.2527 68.8228 54.1211 69.1667C54.0159 69.4474 53.9053 69.7263 53.8106 70.0123C53.6738 70.4211 53.558 70.8404 53.4439 71.2596C53.4071 71.3947 53.3597 71.5228 53.3264 71.6596C52.6281 71.707 51.9281 71.7491 51.2264 71.7825C50.758 71.8053 50.2931 71.8351 49.8246 71.8526C48.4211 71.8982 47.0159 71.9298 45.6141 71.9298C44.1632 71.9298 42.7422 71.9018 41.3474 71.8526C40.5018 71.8211 39.686 71.7667 38.8615 71.7193C38.3404 71.6895 37.8036 71.6702 37.2913 71.6333C36.1966 71.5544 35.1334 71.4526 34.0825 71.3439C33.872 71.3211 33.6509 71.307 33.4422 71.2842C32.2387 71.1526 31.0667 71.0018 29.9246 70.8351C29.8825 70.8298 29.8387 70.8246 29.7983 70.8193C23.8702 69.9439 18.7825 68.6088 14.8018 67.0211C14.772 67.0088 14.7404 66.9982 14.7124 66.986C13.986 66.693 13.3036 66.393 12.6527 66.0842C12.5702 66.0456 12.4825 66.007 12.4001 65.9667C11.8159 65.686 11.2773 65.3965 10.7597 65.1053C10.6316 65.0316 10.4966 64.9596 10.372 64.886C9.92288 64.6228 9.51235 64.3526 9.11937 64.0825C8.96323 63.9737 8.80358 63.8667 8.65796 63.7579C8.32814 63.514 8.02989 63.2667 7.74568 63.0193C7.58428 62.8789 7.42463 62.7386 7.27902 62.5965C7.04568 62.3702 6.84218 62.1439 6.64919 61.9175C6.50884 61.7526 6.37551 61.5877 6.25621 61.421C6.10358 61.2088 5.97375 60.9965 5.85796 60.7842C5.76147 60.607 5.67551 60.4298 5.60182 60.2526C5.51761 60.0439 5.45095 59.8351 5.40182 59.6281C5.33516 59.3421 5.26323 59.0561 5.26323 58.7719V44.3737C5.29481 44.4018 5.33165 44.4298 5.36323 44.4579C5.77025 44.8175 6.18779 45.1754 6.65796 45.5193C13.2755 50.5105 26.4825 54.386 45.6141 54.386C64.7018 54.386 77.8878 50.5281 84.5211 45.5544C85.0299 45.1825 85.486 44.7982 85.9229 44.4088C85.9369 44.3965 85.9527 44.3842 85.965 44.3719V56.9702C85.872 56.9211 85.772 56.8895 85.6773 56.8403C85.0562 56.5281 84.4211 56.2403 83.7703 55.9842ZM6.31761 24.2053C6.84393 24.6193 7.41235 25.0281 8.02814 25.4263C8.15621 25.5088 8.30007 25.5895 8.4334 25.6719C8.94919 25.993 9.49481 26.307 10.0685 26.6158C10.2808 26.7298 10.4931 26.8421 10.7124 26.9544C11.3527 27.2807 12.0246 27.5965 12.7316 27.9053C12.8474 27.9561 12.9527 28.0088 13.0702 28.0579C13.8931 28.407 14.7667 28.7404 15.6755 29.0614C15.9264 29.1509 16.1895 29.2351 16.4474 29.3228C17.1702 29.5667 17.9176 29.8 18.6913 30.0263C18.9702 30.107 19.2439 30.1912 19.5299 30.2702C20.5562 30.5544 21.6159 30.8246 22.7281 31.0737C22.8808 31.1088 23.0457 31.1386 23.2001 31.1719C24.1808 31.386 25.1983 31.5842 26.2439 31.7684C26.5983 31.8316 26.958 31.8912 27.3194 31.9509C28.3141 32.114 29.3387 32.2649 30.3895 32.4018C30.6597 32.4368 30.9176 32.4754 31.1913 32.5105C32.4966 32.6684 33.8474 32.8035 35.2352 32.9193C35.5773 32.9474 35.9334 32.9684 36.2808 32.993C37.3913 33.0737 38.5264 33.1404 39.6878 33.193C40.1106 33.2123 40.5317 33.2316 40.9632 33.2456C42.4773 33.2965 44.0176 33.3333 45.6141 33.3333C47.2106 33.3333 48.7509 33.2965 50.2632 33.2456C50.6931 33.2316 51.1141 33.2105 51.5387 33.193C52.7001 33.1404 53.8352 33.0737 54.9457 32.993C55.2931 32.9667 55.6474 32.9474 55.9913 32.9193C57.379 32.8053 58.7299 32.6684 60.0352 32.5105C60.3088 32.4772 60.5667 32.4368 60.8369 32.4018C61.8878 32.2649 62.9106 32.114 63.9071 31.9509C64.2685 31.8912 64.6281 31.8316 64.9825 31.7684C66.0281 31.5842 67.0457 31.386 68.0264 31.1719C68.1808 31.1386 68.3457 31.1088 68.4983 31.0737C69.6106 30.8246 70.6703 30.5544 71.6966 30.2702C71.9825 30.1912 72.2562 30.1088 72.5352 30.0263C73.3088 29.8018 74.0562 29.5667 74.779 29.3228C75.0369 29.2351 75.3001 29.1509 75.5509 29.0614C76.4597 28.7386 77.3352 28.4053 78.1562 28.0579C78.2738 28.0088 78.379 27.9544 78.4948 27.9053C79.2018 27.5965 79.8738 27.2807 80.5141 26.9544C80.7334 26.8421 80.9474 26.7298 81.158 26.6158C81.7317 26.3088 82.2773 25.9947 82.7931 25.6719C82.9264 25.5895 83.0703 25.5088 83.1983 25.4263C83.8141 25.0281 84.3825 24.6211 84.9088 24.2053C85.0404 24.1 85.158 23.9947 85.286 23.8895C85.5141 23.7 85.7545 23.5123 85.965 23.3211V37.7193C85.965 38.0053 85.8931 38.293 85.8246 38.5807C85.7755 38.786 85.7106 38.9895 85.6281 39.1965C85.5545 39.3772 85.4667 39.5579 85.3685 39.7386C85.2527 39.9474 85.1264 40.1561 84.9773 40.3649C84.8562 40.5333 84.7194 40.7018 84.5773 40.8719C84.3878 41.0947 84.186 41.3175 83.958 41.5386C83.8088 41.6842 83.6457 41.8281 83.4808 41.9719C83.2001 42.2158 82.9071 42.4596 82.5808 42.7C82.4299 42.8123 82.265 42.9228 82.1053 43.0333C81.7159 43.3018 81.3106 43.5684 80.8667 43.8281C80.7369 43.9053 80.5983 43.9807 80.4632 44.0561C79.9509 44.3456 79.4159 44.6316 78.8387 44.9105C78.7527 44.9509 78.658 44.993 78.5702 45.0351C77.9229 45.3404 77.2474 45.6404 76.5246 45.9298C76.4913 45.9421 76.4562 45.9561 76.4229 45.9684C72.4422 47.5544 67.3597 48.8895 61.4352 49.7649C61.3931 49.7702 61.3474 49.7754 61.3053 49.7825C60.1632 49.9491 58.9931 50.1 57.7913 50.2316C57.5808 50.2544 57.3597 50.2702 57.1474 50.2912C56.0966 50.4 55.0352 50.5018 53.9422 50.5807C53.4281 50.6175 52.8913 50.6368 52.3685 50.6667C51.5457 50.714 50.7299 50.7702 49.8843 50.8C48.486 50.8491 47.065 50.8772 45.6141 50.8772C44.1632 50.8772 42.7422 50.8491 41.3474 50.8C40.5018 50.7684 39.686 50.714 38.8615 50.6667C38.3404 50.6368 37.8036 50.6175 37.2913 50.5807C36.1966 50.5018 35.1334 50.4 34.0825 50.2912C33.872 50.2684 33.6509 50.2544 33.4422 50.2316C32.2387 50.1 31.0667 49.9491 29.9246 49.7825C29.8825 49.7772 29.8387 49.7719 29.7983 49.7667C23.8702 48.8912 18.7825 47.5561 14.8018 45.9684C14.772 45.9561 14.7404 45.9456 14.7124 45.9333C13.986 45.6403 13.3036 45.3403 12.6527 45.0316C12.5702 44.993 12.4825 44.9544 12.4001 44.914C11.8159 44.6333 11.2773 44.3439 10.7597 44.0526C10.6316 43.9789 10.4966 43.907 10.372 43.8333C9.92288 43.5702 9.51235 43.3 9.11937 43.0298C8.96323 42.9211 8.80358 42.814 8.65796 42.7053C8.32814 42.4614 8.02989 42.214 7.74568 41.9667C7.58428 41.8263 7.42463 41.686 7.27902 41.5439C7.04568 41.3175 6.84218 41.0912 6.64919 40.8649C6.50884 40.7 6.37551 40.5351 6.25621 40.3684C6.10358 40.1561 5.97375 39.9439 5.85796 39.7316C5.76147 39.5544 5.67551 39.3772 5.60182 39.2C5.51761 38.9912 5.45095 38.7825 5.40182 38.5754C5.33516 38.2895 5.26323 38.0035 5.26323 37.7193V23.3211C5.47375 23.5123 5.71411 23.7 5.94218 23.8895C6.06849 23.9947 6.18603 24.1 6.31761 24.2053ZM45.6141 3.50877C69.3931 3.50877 85.965 10.4421 85.965 16.6667C85.965 22.8912 69.3931 29.8246 45.6141 29.8246C21.8352 29.8246 5.26323 22.8912 5.26323 16.6667C5.26323 10.4421 21.8352 3.50877 45.6141 3.50877ZM45.6141 92.9825C22.7422 92.9825 6.31411 86.486 5.31937 80.4175C5.30533 80.3386 5.28779 80.2614 5.26323 80.1877V65.4263C5.29481 65.4544 5.33165 65.4825 5.36323 65.5105C5.77025 65.8702 6.18779 66.2281 6.65796 66.5719C13.2755 71.5632 26.4825 75.4386 45.6141 75.4386C47.0124 75.4386 48.4141 75.4053 49.8141 75.3561C50.2334 75.3421 50.6492 75.3193 51.0685 75.3C51.6194 75.2754 52.1738 75.2597 52.7229 75.2263C52.6632 75.893 52.6317 76.5491 52.6317 77.193C52.6317 77.9386 52.6738 78.6789 52.7439 79.4123C52.7667 79.6491 52.8106 79.8807 52.8404 80.114C52.9036 80.6088 52.9702 81.1018 53.0667 81.5877C53.1176 81.8456 53.1843 82.0965 53.2439 82.3526C53.351 82.8105 53.4615 83.2667 53.5948 83.7175C53.6667 83.9597 53.7509 84.1965 53.8317 84.4368C53.9843 84.8912 54.1457 85.3421 54.3264 85.7877C54.4141 86.0035 54.5071 86.214 54.6018 86.4246C54.8036 86.8807 55.0194 87.3298 55.2509 87.7719C55.3509 87.9596 55.4527 88.1474 55.5562 88.3333C55.8071 88.7789 56.072 89.2158 56.3527 89.6439C56.465 89.8158 56.5773 89.986 56.6931 90.1544C56.9843 90.5737 57.2913 90.9807 57.6106 91.3807C57.7422 91.5474 57.8738 91.714 58.0106 91.8754C58.1211 92.007 58.2211 92.1474 58.3352 92.2772C54.2334 92.7439 49.9702 92.9825 45.6141 92.9825ZM75.4387 96.4912C70.8071 96.4912 66.5527 94.8474 63.2229 92.1193C62.7088 91.6965 62.2194 91.2509 61.7562 90.786C61.5667 90.5947 61.3948 90.3877 61.2141 90.1895C60.9492 89.9 60.6825 89.6105 60.4369 89.307C60.2281 89.0491 60.0369 88.7789 59.8404 88.5105C59.6457 88.2439 59.4527 87.9772 59.2738 87.7018C59.086 87.414 58.9106 87.1193 58.7387 86.8228C58.5755 86.5403 58.4194 86.2561 58.2702 85.9667C58.1176 85.6684 57.9702 85.3667 57.8334 85.0597C57.6913 84.7439 57.5632 84.4228 57.4404 84.1C57.3264 83.807 57.2141 83.5123 57.1141 83.2123C56.9948 82.8474 56.8948 82.4754 56.7966 82.1035C56.7246 81.8298 56.6439 81.5579 56.5843 81.2789C56.4895 80.8403 56.4229 80.3947 56.3597 79.9474C56.3264 79.7211 56.2808 79.4982 56.2562 79.2667C56.1825 78.5807 56.1404 77.8895 56.1404 77.193C56.1404 76.5912 56.1773 75.9982 56.2316 75.4088C56.2878 74.8333 56.3702 74.2491 56.4825 73.6474C56.5702 73.1719 56.686 72.7088 56.8071 72.2474C56.8404 72.1193 56.8702 71.9912 56.9053 71.8632C57.0159 71.4772 57.1457 71.1 57.2773 70.7263C57.3509 70.5211 57.4229 70.3158 57.5018 70.1123C57.6246 69.8018 57.758 69.4947 57.8966 69.193C58.0159 68.9316 58.1404 68.6702 58.272 68.414C58.3983 68.1684 58.5281 67.9263 58.6632 67.686C58.8387 67.3772 59.0246 67.0754 59.2159 66.7772C59.3334 66.593 59.4492 66.4088 59.5738 66.2281C59.8194 65.8737 60.0808 65.5298 60.3492 65.193C60.4422 65.0772 60.5281 64.9579 60.6229 64.8439C60.9878 64.4053 61.3702 63.9825 61.7738 63.5772C61.7843 63.5667 61.7931 63.5561 61.8036 63.5456C62.6562 62.6947 63.5895 61.9246 64.5878 61.2421C64.7018 61.1649 64.8229 61.0947 64.9387 61.0193C65.3106 60.7772 65.6895 60.5439 66.079 60.3263C66.258 60.2263 66.4404 60.1368 66.6211 60.0439C66.9597 59.8684 67.3036 59.7 67.6527 59.5456C67.8667 59.4509 68.0825 59.3632 68.3001 59.2754C68.6334 59.1421 68.972 59.0193 69.3141 58.9035C69.5474 58.8263 69.7808 58.7491 70.0176 58.6807C70.3632 58.579 70.7159 58.493 71.0685 58.4105C71.3036 58.3561 71.5387 58.2982 71.7773 58.2509C72.1667 58.1754 72.5632 58.1211 72.9615 58.0684C73.1703 58.0421 73.3755 58.0053 73.5843 57.986C74.1966 57.9298 74.8124 57.8947 75.4387 57.8947C76.0369 57.8947 76.6264 57.9316 77.2106 57.9842C77.3931 58 77.5738 58.0246 77.7562 58.0474C78.1667 58.0965 78.572 58.1596 78.9738 58.2333C79.1685 58.2702 79.3632 58.3053 79.558 58.3474C79.986 58.4403 80.4071 58.5526 80.8229 58.6737C80.9632 58.714 81.1053 58.7474 81.2439 58.7895C81.758 58.9526 82.2597 59.1404 82.7545 59.3439C82.9913 59.4421 83.2211 59.5526 83.4545 59.6596C83.7246 59.7842 83.9913 59.9105 84.2545 60.0456C84.5159 60.1807 84.7738 60.3228 85.0299 60.4702C85.2492 60.5965 85.4615 60.7281 85.6755 60.8632C85.9404 61.0298 86.2053 61.1947 86.4632 61.3754C91.4562 64.8667 94.7369 70.6509 94.7369 77.193C94.7369 87.8333 86.079 96.4912 75.4387 96.4912Z" fill="#656565"/>
</svg>
