<svg width="100" height="100" viewBox="0 0 100 100" fill="none" xmlns="http://www.w3.org/2000/svg">
<g clip-path="url(#clip0_720_58950)">
<path d="M1.67525 51.6753C2.5954 51.6753 3.34219 50.9302 3.34219 50.0083C3.34219 24.2724 24.2807 3.33389 50.0166 3.33389C60.5634 3.33389 70.6501 6.85948 78.8581 13.3356H70.02C69.0998 13.3356 68.353 14.0807 68.353 15.0025C68.353 15.9243 69.0998 16.6694 70.02 16.6694H83.2138C83.3238 16.6794 83.4272 16.6811 83.5355 16.6694H85.0208V1.66694C85.0208 0.745124 84.274 0 83.3539 0C82.4337 0 81.6869 0.745124 81.6869 1.66694V11.3519C72.7588 4.014 61.6536 0 50.0166 0C22.442 0 0.00830078 22.4337 0.00830078 50.0083C0.00830078 50.9302 0.755092 51.6753 1.67525 51.6753Z" fill="#656565"/>
<path d="M50.0166 13.3354C29.7949 13.3354 13.3439 29.7865 13.3439 50.0082C13.3439 70.2299 29.7949 86.681 50.0166 86.681C70.2384 86.681 86.6894 70.2299 86.6894 50.0082C86.6894 29.7865 70.2384 13.3354 50.0166 13.3354ZM50.0166 83.3471C31.6336 83.3471 16.6778 68.3913 16.6778 50.0082C16.6778 31.6252 31.6336 16.6693 50.0166 16.6693C68.3997 16.6693 83.3555 31.6252 83.3555 50.0082C83.3555 68.3913 68.3997 83.3471 50.0166 83.3471Z" fill="#656565"/>
<path d="M50.0167 25.0042C50.9368 25.0042 51.6836 24.2591 51.6836 23.3373V20.0034C51.6836 19.0815 50.9368 18.3364 50.0167 18.3364C49.0965 18.3364 48.3497 19.0815 48.3497 20.0034V23.3373C48.3497 24.2591 49.0965 25.0042 50.0167 25.0042Z" fill="#656565"/>
<path d="M50.0167 75.0125C49.0965 75.0125 48.3497 75.7576 48.3497 76.6794V80.0133C48.3497 80.9351 49.0965 81.6802 50.0167 81.6802C50.9368 81.6802 51.6836 80.9351 51.6836 80.0133V76.6794C51.6836 75.7576 50.9368 75.0125 50.0167 75.0125Z" fill="#656565"/>
<path d="M76.6878 51.6752H80.0217C80.9419 51.6752 81.6887 50.9301 81.6887 50.0083C81.6887 49.0864 80.9419 48.3413 80.0217 48.3413H76.6878C75.7677 48.3413 75.0209 49.0864 75.0209 50.0083C75.0209 50.9301 75.7677 51.6752 76.6878 51.6752Z" fill="#656565"/>
<path d="M23.3456 48.3413H20.0117C19.0915 48.3413 18.3447 49.0864 18.3447 50.0083C18.3447 50.9301 19.0915 51.6752 20.0117 51.6752H23.3456C24.2657 51.6752 25.0125 50.9301 25.0125 50.0083C25.0125 49.0864 24.2657 48.3413 23.3456 48.3413Z" fill="#656565"/>
<path d="M51.6836 41.9102V33.3388C51.6836 32.417 50.9368 31.6719 50.0167 31.6719C49.0965 31.6719 48.3497 32.417 48.3497 33.3388V41.9102C45.4826 42.6554 43.3489 45.2425 43.3489 48.3413C43.3489 49.5749 43.7073 50.715 44.2941 51.7069L30.5018 65.4992C29.85 66.151 29.85 67.2045 30.5018 67.8562C30.8268 68.1813 31.2536 68.3447 31.6803 68.3447C32.107 68.3447 32.5338 68.1813 32.8588 67.8562L46.6511 54.0639C47.643 54.6507 48.7831 55.0091 50.0167 55.0091C53.694 55.0091 56.6845 52.0186 56.6845 48.3413C56.6845 45.2425 54.5508 42.6554 51.6836 41.9102ZM50.0167 51.6752C48.178 51.6752 46.6828 50.18 46.6828 48.3413C46.6828 46.5027 48.178 45.0074 50.0167 45.0074C51.8553 45.0074 53.3506 46.5027 53.3506 48.3413C53.3506 50.18 51.8553 51.6752 50.0167 51.6752Z" fill="#656565"/>
<path d="M19.8267 87.7814C19.2766 88.5132 19.4266 89.5633 20.1767 90.1134C20.4601 90.3301 20.8101 90.4302 21.1602 90.4302C21.677 90.4302 22.177 90.2135 22.5104 89.7634C23.0439 89.0316 22.8938 87.9814 22.1604 87.4313C21.4269 86.8812 20.3784 87.0313 19.8267 87.7814Z" fill="#656565"/>
<path d="M12.0603 77.1294C11.5269 76.3976 10.4767 76.2126 9.72661 76.7477C8.97648 77.2978 8.80979 78.3313 9.34321 79.0797C9.6766 79.5315 10.1767 79.7799 10.7101 79.7799C11.0435 79.7799 11.3769 79.6798 11.6769 79.4648C12.4254 78.9297 12.5938 77.8795 12.0603 77.1294Z" fill="#656565"/>
<path d="M12.7088 80.7634C12.0254 81.3785 11.9587 82.4303 12.5755 83.1121C12.8922 83.4955 13.3589 83.6805 13.8257 83.6805C14.2091 83.6805 14.6091 83.5472 14.9258 83.2638C15.6093 82.647 15.676 81.5968 15.0592 80.9134C14.4608 80.2133 13.4106 80.1633 12.7088 80.7634Z" fill="#656565"/>
<path d="M18.4447 84.3473C17.778 83.7306 16.7111 83.7806 16.0944 84.449C15.4609 85.1308 15.5109 86.1827 16.1944 86.8161C16.5111 87.0995 16.9112 87.2495 17.3112 87.2495C17.7613 87.2495 18.2114 87.0661 18.5448 86.7161C19.1615 86.0326 19.1282 84.9824 18.4447 84.3657C18.4447 84.3473 18.4447 84.3473 18.4447 84.3473Z" fill="#656565"/>
<path d="M9.45994 73.0787C9.44327 73.0787 9.44327 73.0787 9.44327 73.0787C8.99319 72.2786 7.97636 71.9952 7.17622 72.462C6.37609 72.9137 6.09271 73.9289 6.55945 74.729C6.8595 75.2608 7.42626 75.5625 8.00969 75.5625C8.27641 75.5625 8.57646 75.4958 8.8265 75.3458C9.62663 74.8957 9.91001 73.8772 9.45994 73.0787Z" fill="#656565"/>
<path d="M98.2581 53.5421C98.2914 53.5421 98.3081 53.5421 98.3247 53.5421C99.2249 53.5421 99.9583 52.8237 99.9917 51.9419C100.025 51.0067 99.3082 50.2399 98.3914 50.2083C97.4746 50.1733 96.6911 50.8917 96.6578 51.8085C96.6245 52.7253 97.3396 53.5088 98.2581 53.5421Z" fill="#656565"/>
<path d="M2.10871 56.6594C3.02553 56.5577 3.69231 55.7409 3.59229 54.8241C3.49227 53.9073 2.67547 53.2405 1.75865 53.3405C0.84183 53.4238 0.175053 54.2573 0.275069 55.1575C0.358416 56.0243 1.09187 56.6577 1.92534 56.6577C1.99202 56.6594 2.04203 56.6594 2.10871 56.6594Z" fill="#656565"/>
<path d="M3.04216 61.5603C3.94231 61.3769 4.52574 60.4934 4.3257 59.5933C4.14234 58.6931 3.25886 58.108 2.35871 58.3081C1.45856 58.4914 0.87513 59.3766 1.07516 60.2767C1.22519 61.0602 1.9253 61.5936 2.6921 61.5936C2.80712 61.5936 2.92547 61.5936 3.04216 61.5603Z" fill="#656565"/>
<path d="M7.2762 68.7616C6.90947 67.9281 5.92598 67.5447 5.07583 67.9114C4.24236 68.2782 3.85897 69.2616 4.22569 70.1101C4.50907 70.7269 5.10917 71.112 5.75928 71.112C5.97598 71.112 6.20936 71.0619 6.42606 70.9603C7.25786 70.5952 7.64126 69.6117 7.2762 68.7616Z" fill="#656565"/>
<path d="M5.55761 64.2607C5.2909 63.3772 4.34074 62.8938 3.47393 63.1772C2.59045 63.4606 2.10703 64.3941 2.39042 65.2792C2.62379 65.9793 3.2739 66.4278 3.97401 66.4278C4.14071 66.4278 4.32407 66.4111 4.49077 66.3611C5.35924 66.0777 5.84266 65.1259 5.55761 64.2607Z" fill="#656565"/>
<path d="M49.1165 96.6661C48.1997 96.6478 47.4329 97.3829 47.4162 98.298C47.3996 99.2332 48.133 99.9817 49.0498 100C49.0665 100 49.0832 100 49.0832 100C50 100 50.7335 99.2815 50.7501 98.3664C50.7651 97.4496 50.0333 96.6828 49.1165 96.6661Z" fill="#656565"/>
<path d="M86.9062 78.5798C86.3394 79.2966 86.4728 80.3485 87.1895 80.9136C87.5063 81.1469 87.8563 81.2636 88.223 81.2636C88.7065 81.2636 89.2065 81.0469 89.5399 80.6118C90.1067 79.895 89.9733 78.8449 89.2399 78.2798C88.5064 77.7147 87.4729 77.8464 86.9062 78.5798Z" fill="#656565"/>
<path d="M76.4027 88.4814C75.6526 88.9982 75.4526 90.0467 75.986 90.7985C76.3027 91.2652 76.8195 91.5153 77.3529 91.5153C77.6863 91.5153 78.003 91.4319 78.303 91.2319C79.0532 90.7151 79.2532 89.6666 78.7198 88.9148C78.203 88.148 77.1712 87.9647 76.4027 88.4814Z" fill="#656565"/>
<path d="M80.2384 85.5459C79.5383 86.146 79.4549 87.1961 80.055 87.8963C80.3884 88.2797 80.8551 88.4814 81.3219 88.4814C81.7053 88.4814 82.0887 88.348 82.4054 88.0813C83.1055 87.4812 83.1889 86.431 82.5888 85.7309C81.987 85.0308 80.9385 84.9474 80.2384 85.5459Z" fill="#656565"/>
<path d="M91.9553 74.0774C91.1719 73.594 90.1384 73.844 89.6549 74.6108C89.1715 75.3943 89.4049 76.4278 90.1884 76.9112C90.4717 77.0796 90.7718 77.1613 91.0718 77.1613C91.6219 77.1613 92.172 76.8946 92.4887 76.3761C92.9738 75.596 92.7405 74.5608 91.9553 74.0774Z" fill="#656565"/>
<path d="M83.7556 82.2303C83.1055 82.8954 83.1389 83.9456 83.8056 84.5807C84.1224 84.8958 84.5391 85.0458 84.9558 85.0458C85.3892 85.0458 85.8393 84.8791 86.156 84.529C86.7895 83.8623 86.7728 82.8121 86.106 82.1786C85.4392 81.5452 84.3874 81.5635 83.7556 82.2303Z" fill="#656565"/>
<path d="M98.1063 55.1908C97.2062 55.0591 96.356 55.7092 96.2227 56.6094C96.0893 57.5262 96.7228 58.3597 97.6396 58.493C97.7229 58.5097 97.8063 58.5097 97.873 58.5097C98.6898 58.5097 99.4065 57.9113 99.5232 57.0778C99.6583 56.176 99.0248 55.3242 98.1063 55.1908Z" fill="#656565"/>
<path d="M97.3246 60.1251C96.4244 59.9084 95.5243 60.4585 95.2909 61.342C95.0742 62.2421 95.6243 63.1423 96.5078 63.3757C96.6411 63.4107 96.7745 63.4257 96.9078 63.4257C97.6579 63.4257 98.3414 62.9089 98.5248 62.1588C98.7581 61.2603 98.2064 60.3602 97.3246 60.1251Z" fill="#656565"/>
<path d="M26.1777 90.1151C25.3775 89.65 24.3607 89.8984 23.894 90.7002C23.4106 91.4836 23.6773 92.5171 24.4607 92.9839C24.7274 93.1506 25.0275 93.2173 25.3109 93.2173C25.8776 93.2173 26.4277 92.9339 26.7444 92.4005C27.2279 91.6153 26.9628 90.5985 26.1777 90.1151Z" fill="#656565"/>
<path d="M96.0227 64.9609C95.1559 64.6458 94.1891 65.0942 93.889 65.961C93.5723 66.8295 94.0057 67.7797 94.8725 68.0947C95.0559 68.1614 95.2559 68.1964 95.4393 68.1964C96.1227 68.1964 96.7728 67.7797 97.0062 67.0962C97.3246 66.2261 96.8895 65.2776 96.0227 64.9609Z" fill="#656565"/>
<path d="M94.224 69.6282C93.4072 69.2298 92.3904 69.5615 91.9903 70.395C91.5902 71.2285 91.9403 72.2303 92.7571 72.6287C92.9905 72.7454 93.2405 72.7971 93.4906 72.7971C94.1073 72.7971 94.7074 72.447 94.9908 71.8619C95.3909 71.0268 95.0575 70.0283 94.224 69.6282Z" fill="#656565"/>
<path d="M44.299 96.3327C43.3822 96.216 42.5654 96.8644 42.4487 97.7829C42.332 98.6997 42.9821 99.5332 43.899 99.6315V99.6499C43.9656 99.6499 44.0323 99.6499 44.099 99.6499C44.9325 99.6499 45.6493 99.0331 45.7493 98.1813C45.866 97.2662 45.2142 96.4477 44.299 96.3327Z" fill="#656565"/>
<path d="M34.9142 94.1822C34.0473 93.8805 33.0972 94.3323 32.7971 95.2158C32.4971 96.0826 32.9638 97.0327 33.8306 97.3328C34.014 97.3828 34.1974 97.4161 34.3807 97.4161C35.0642 97.4161 35.7143 96.9827 35.9477 96.2993C36.2477 95.4158 35.781 94.4656 34.9142 94.1822Z" fill="#656565"/>
<path d="M39.5483 95.4993C38.6481 95.2992 37.7647 95.8493 37.5479 96.7495C37.3479 97.6496 37.9147 98.5498 38.7982 98.7498C38.9315 98.7831 39.0482 98.7831 39.1816 98.7831C39.9317 98.7831 40.6318 98.2664 40.7985 97.4996C41.0135 96.5994 40.4484 95.6993 39.5483 95.4993Z" fill="#656565"/>
<path d="M30.4467 92.3821C29.5966 91.9821 28.6131 92.3471 28.2297 93.1806C27.8463 94.0141 28.1963 95.0159 29.0298 95.3976C29.2632 95.4993 29.4966 95.5477 29.7299 95.5477C30.3634 95.5477 30.9635 95.1976 31.2469 94.5825C31.6303 93.749 31.2802 92.7639 30.4467 92.3821Z" fill="#656565"/>
<path d="M58.7181 95.866C57.818 96.0327 57.2179 96.9162 57.3846 97.8164C57.5346 98.6165 58.2514 99.1683 59.0348 99.1683C59.1349 99.1683 59.2349 99.1682 59.3349 99.1499C60.235 98.9682 60.8351 98.0997 60.6684 97.1996C60.5017 96.2828 59.6183 95.6993 58.7181 95.866Z" fill="#656565"/>
<path d="M63.4022 94.7325C62.5187 94.9809 62.0186 95.916 62.2854 96.7978C62.5021 97.5163 63.1688 97.983 63.8856 97.983C64.0357 97.983 64.2023 97.9647 64.369 97.9163C65.2525 97.6496 65.7526 96.7145 65.4859 95.8327C65.2175 94.9659 64.2857 94.4658 63.4022 94.7325Z" fill="#656565"/>
<path d="M67.953 93.0988C67.1028 93.4489 66.7028 94.4324 67.0528 95.2842C67.3195 95.9176 67.9363 96.2993 68.5864 96.2993C68.8031 96.2993 69.0198 96.266 69.2365 96.1843C70.0867 95.8159 70.4867 94.8491 70.1367 93.9989C69.7683 93.1488 68.8031 92.7487 67.953 93.0988Z" fill="#656565"/>
<path d="M53.9323 96.5145C53.0155 96.5995 52.332 97.398 52.4154 98.3148C52.4821 99.1833 53.2155 99.8484 54.0823 99.8484C54.1157 99.8484 54.1657 99.8484 54.2157 99.8484V99.8317C55.1325 99.765 55.816 98.9649 55.7326 98.0481C55.6659 97.1329 54.8508 96.4478 53.9323 96.5145Z" fill="#656565"/>
<path d="M72.3021 91.0152C71.4853 91.4486 71.1852 92.4655 71.6353 93.2673C71.9353 93.834 72.5021 94.1491 73.1022 94.1491C73.3689 94.1491 73.6356 94.0824 73.8857 93.9324C74.7025 93.499 75.0025 92.4821 74.5524 91.682C74.1207 90.8652 73.1022 90.5652 72.3021 91.0152Z" fill="#656565"/>
</g>
<defs>
<clipPath id="clip0_720_58950">
<rect width="100" height="100" fill="white"/>
</clipPath>
</defs>
</svg>
