<svg width="100" height="100" viewBox="0 0 100 100" fill="none" xmlns="http://www.w3.org/2000/svg">
<path d="M64.009 29.8105H75.7094C76.808 29.8105 77.7901 29.0312 77.9463 27.9437C78.1413 26.5888 77.0952 25.4263 75.7778 25.4263H64.0774C62.9788 25.4263 61.9967 26.2056 61.8405 27.2931C61.6455 28.6479 62.6916 29.8105 64.009 29.8105Z" fill="#656565"/>
<path d="M59.3326 38.5788H61.5658C62.6645 38.5788 63.6465 37.7995 63.8028 36.712C63.9977 35.3571 62.9516 34.1946 61.6342 34.1946H59.401C58.3024 34.1946 57.3203 34.9739 57.1641 36.0614C56.9692 37.4163 58.0153 38.5788 59.3326 38.5788Z" fill="#656565"/>
<path d="M68.4602 38.5788H71.2586C72.3573 38.5788 73.3393 37.7995 73.4955 36.712C73.6905 35.3569 72.6444 34.1946 71.327 34.1946H68.5286C67.4299 34.1946 66.4479 34.9739 66.2916 36.0614C66.0967 37.4163 67.1428 38.5788 68.4602 38.5788Z" fill="#656565"/>
<path d="M75.9838 36.0614C75.7889 37.4163 76.835 38.5788 78.1523 38.5788H80.3855C81.4842 38.5788 82.4662 37.7995 82.6225 36.712C82.8176 35.3569 81.7715 34.1946 80.4539 34.1946H78.2207C77.1221 34.1946 76.14 34.9739 75.9838 36.0614Z" fill="#656565"/>
<path d="M59.3326 47.3468H61.5658C62.6645 47.3468 63.6465 46.5675 63.8028 45.48C63.9977 44.1251 62.9516 42.9626 61.6342 42.9626H59.401C58.3024 42.9626 57.3203 43.7419 57.1641 44.8294C56.9692 46.1845 58.0153 47.3468 59.3326 47.3468Z" fill="#656565"/>
<path d="M68.4602 47.3468H71.2586C72.3573 47.3468 73.3393 46.5675 73.4955 45.48C73.6905 44.125 72.6444 42.9626 71.327 42.9626H68.5286C67.4299 42.9626 66.4479 43.7419 66.2916 44.8294C66.0967 46.1845 67.1428 47.3468 68.4602 47.3468Z" fill="#656565"/>
<path d="M78.1523 47.3468H80.3855C81.4842 47.3468 82.4662 46.5675 82.6225 45.48C82.8176 44.125 81.7715 42.9626 80.4539 42.9626H78.2207C77.1221 42.9626 76.14 43.7419 75.9838 44.8294C75.7889 46.1845 76.835 47.3468 78.1523 47.3468Z" fill="#656565"/>
<path d="M59.3326 56.1152H61.6342C62.8449 56.1152 63.8262 55.1335 63.8262 53.9232C63.8262 52.7128 62.8447 51.7312 61.6342 51.7312H59.3326C58.1219 51.7312 57.1406 52.7128 57.1406 53.9232C57.1406 55.1335 58.1221 56.1152 59.3326 56.1152Z" fill="#656565"/>
<path d="M68.4602 56.1152H71.327C72.5377 56.1152 73.519 55.1335 73.519 53.9232C73.519 52.7128 72.5375 51.7312 71.327 51.7312H68.4602C67.2494 51.7312 66.2682 52.7128 66.2682 53.9232C66.2682 55.1335 67.2496 56.1152 68.4602 56.1152Z" fill="#656565"/>
<path d="M80.4541 51.731H78.1523C76.9416 51.731 75.9603 52.7126 75.9603 53.9229C75.9603 55.1333 76.9418 56.1149 78.1523 56.1149H80.4539C81.6646 56.1149 82.6459 55.1333 82.6459 53.9229C82.6459 52.7126 81.6646 51.731 80.4541 51.731Z" fill="#656565"/>
<path d="M75.7778 60.4993H64.009C62.7983 60.4993 61.817 61.4809 61.817 62.6913C61.817 63.9018 62.7985 64.8833 64.009 64.8833H75.7778C76.9885 64.8833 77.9698 63.9016 77.9698 62.6913C77.9698 61.4807 76.9885 60.4993 75.7778 60.4993Z" fill="#656565"/>
<path d="M97.808 4.42964H87.4299V3.99116C87.4299 2.78061 86.4484 1.79917 85.2379 1.79917L2.19199 1.75659C0.981445 1.75659 0 2.73823 0 3.94878V14.9091C0 16.1199 0.981445 17.1011 2.19199 17.1011H3.32246C3.10059 20.5605 4.52441 24.6966 7.62812 29.6415C7.62832 29.6417 7.62852 29.6419 7.62871 29.6423C11.8732 36.4068 18.7188 43.7998 24.2158 49.7369C24.2154 49.9345 24.2152 50.0652 24.2145 50.263C24.2135 50.2638 24.2127 50.2648 24.2121 50.2656C14.5432 60.7087 2.74863 73.4503 3.32949 82.8988H2.19199C0.981445 82.8988 0 83.8802 0 85.091V96.0513C0 97.2621 0.981445 98.2433 2.19199 98.2433H62.4736C63.6844 98.2433 64.6656 97.2619 64.6656 96.0513V87.2406H97.8078C99.0186 87.2406 99.9998 86.2591 99.9998 85.0486V6.62183C100 5.41128 99.0186 4.42964 97.808 4.42964ZM64.6658 6.18335H83.0457V13.198H64.6658V6.18335ZM86.8477 17.582V74.0878H59.1258C57.6146 71.0019 55.442 67.7798 52.9391 64.5492V35.4382C54.4521 33.4871 55.8475 31.5394 57.0381 29.641C57.0383 29.6406 57.0387 29.64 57.0391 29.6396C60 24.9238 61.4316 20.9425 61.3639 17.582H86.8477ZM34.4379 67.7566V57.7472L37.4754 53.5025C42.4053 58.8267 47.9424 64.8304 51.9193 70.5638C55.5875 75.8527 57.2717 79.991 56.9443 82.8984H46.9551L34.4379 67.7566ZM41.2668 82.8984H23.3986L32.3328 72.0912L41.2668 82.8984ZM40.4385 49.7492C42.9854 46.9992 45.8217 43.9367 48.5551 40.7687V59.2207C45.8891 56.1359 43.0863 53.1087 40.442 50.2531C40.441 50.2521 40.4404 50.2513 40.4396 50.2505C40.4391 50.0622 40.4389 49.9374 40.4385 49.7492ZM4.38418 12.7169V6.14077H60.2816V12.7169H4.38418ZM10.8211 26.464L10.8217 26.4624C8.49922 22.5761 7.46113 19.4382 7.72187 17.1013H56.9438C57.2057 19.439 56.1684 22.5757 53.8461 26.4601L53.8467 26.4617C51.6061 26.9183 50.1609 27.9755 48.9693 28.8496C47.5701 29.8761 46.5592 30.6175 44.2883 30.6175C42.0174 30.6175 41.0061 29.8761 39.6068 28.8503C38.017 27.6845 36.0385 26.2335 32.3305 26.2335C28.6252 26.2335 26.6475 27.6843 25.0586 28.8499C23.6594 29.8763 22.6486 30.6175 20.3771 30.6175C18.1055 30.6175 17.0945 29.8761 15.6953 28.8503C14.5045 27.9769 13.0604 26.9207 10.8211 26.464ZM16.4451 34.3339C17.5066 34.733 18.7818 35.0017 20.3771 35.0017C24.0842 35.0017 26.0623 33.5507 27.6518 32.3849C29.0502 31.3589 30.0607 30.6177 32.3305 30.6177C34.6031 30.6177 35.6146 31.3593 37.0145 32.3857C38.6039 33.5511 40.582 35.0019 44.2883 35.0019C45.8854 35.0019 47.1619 34.7326 48.2244 34.3324C44.7291 38.6648 40.7105 43.0039 37.2393 46.7519C36.6848 47.3505 32.3328 53.1556 32.3328 53.1556C32.3328 53.1556 27.9766 47.3458 27.4197 46.7443C23.9523 42.9992 19.9377 38.6626 16.4451 34.3339ZM12.742 70.5703C16.7189 64.8349 22.259 58.8285 27.1896 53.5027L30.0535 57.5046V67.9382C30.0535 67.9474 30.0549 67.9564 30.0549 67.9656L17.7104 82.8984H7.7209C7.39375 79.9919 9.07676 75.8558 12.742 70.5703ZM60.2816 93.8591H4.38418V87.283H60.2816V93.8591ZM95.6158 82.8564H61.3385C61.4189 81.4603 61.2326 79.9933 60.8211 78.4722H89.0396C90.2504 78.4722 91.2316 77.4908 91.2316 76.2802V15.39C91.2316 14.1792 90.2502 13.198 89.0396 13.198H87.4299V8.81382H95.6158V82.8564Z" fill="#656565"/>
</svg>
