<svg width="100" height="100" viewBox="0 0 100 100" fill="none" xmlns="http://www.w3.org/2000/svg">
<g clip-path="url(#clip0_720_58937)">
<path d="M89.9955 69.1166C95.9512 65.8599 100 59.5356 100 52.2825C100 46.4533 97.3818 41.227 93.2634 37.7078C90.9278 27.5995 85.2286 18.4278 77.1498 11.8106C68.7443 4.92602 58.1214 1.13428 47.238 1.13428C21.1909 1.13428 0 22.3254 0 48.3726C0 74.4197 21.1909 95.6106 47.238 95.6106C52.1795 95.6106 57.0143 94.8575 61.6547 93.3694V96.5274C61.6547 97.8192 62.7017 98.8662 63.9934 98.8662H97.6615C98.9532 98.8662 100 97.8192 100 96.5274V85.9508C100 78.6979 95.9512 72.3734 89.9955 69.1166ZM95.3225 52.2827C95.3225 60.2756 88.82 66.7781 80.8271 66.7781C72.8342 66.7781 66.3317 60.2756 66.3317 52.2827C66.3317 44.2901 72.8342 37.7873 80.8271 37.7873C88.82 37.7873 95.3225 44.2898 95.3225 52.2827ZM63.9223 76.9165C58.8779 79.8718 53.1251 81.435 47.238 81.435C29.0073 81.435 14.1754 66.6031 14.1754 48.3723C14.1754 30.1416 29.0073 15.3096 47.238 15.3096C54.0168 15.3096 60.5311 17.3461 66.0766 21.1989C70.6601 24.383 74.3182 28.6128 76.7906 33.5409C76.3298 33.6401 75.8758 33.757 75.428 33.8888C75.5398 33.3471 75.4637 32.7644 75.1653 32.2477C74.5196 31.129 73.0895 30.7459 71.9703 31.3917L70.7126 32.1179C69.5939 32.7639 69.2106 34.1943 69.8563 35.3127C70.0424 35.6352 70.2963 35.8922 70.5868 36.0855C65.2238 39.4882 61.6542 45.4745 61.6542 52.2822C61.6542 59.5354 65.7029 65.8599 71.6586 69.1164C68.3841 70.9074 65.6877 73.6263 63.9223 76.9165ZM47.238 90.9329C23.7702 90.9329 4.67752 71.8404 4.67752 48.3726C4.67752 24.9047 23.7702 5.81205 47.238 5.81205C57.0439 5.81205 66.6141 9.22762 74.186 15.4295C80.2498 20.3963 84.8264 26.9576 87.4024 34.2718C85.6319 33.6234 83.7399 33.23 81.771 33.1339C78.9684 26.7819 74.4922 21.35 68.7458 17.3576C62.4127 12.9578 54.9754 10.6324 47.2383 10.6324C26.4282 10.6324 9.49808 27.5625 9.49808 48.3726C9.49808 69.1826 26.4282 86.1128 47.2383 86.1128C52.29 86.1128 57.2561 85.1012 61.8592 83.1672C61.7263 84.0763 61.6547 85.0055 61.6547 85.9511V88.4259C57.0431 90.0882 52.2016 90.9329 47.238 90.9329ZM95.3225 94.1884H66.3319V85.9508C66.3319 77.9582 72.8344 71.4554 80.8271 71.4554C88.82 71.4554 95.3225 77.9579 95.3225 85.9508V94.1884V94.1884Z" fill="#656565"/>
<path d="M49.576 41.7137V25.9987C49.576 24.7069 48.529 23.6599 47.2373 23.6599C45.9455 23.6599 44.8985 24.7069 44.8985 25.9987V41.7137C42.885 42.4229 41.2875 44.0204 40.5782 46.034H34.2067C32.9149 46.034 31.8679 47.081 31.8679 48.3727C31.8679 49.6645 32.9149 50.7115 34.2067 50.7115H40.5782C41.5455 53.4574 44.1646 55.4316 47.2373 55.4316C51.1297 55.4316 54.2964 52.2649 54.2964 48.3727C54.2964 45.2999 52.322 42.6809 49.576 41.7137ZM47.2373 50.7541C45.9241 50.7541 44.8557 49.6859 44.8557 48.3727C44.8557 47.0596 45.9241 45.9914 47.2373 45.9914C48.5504 45.9914 49.6189 47.0596 49.6189 48.3727C49.6189 49.6859 48.5504 50.7541 47.2373 50.7541Z" fill="#656565"/>
<path d="M47.2368 74.4917C45.9451 74.4917 44.8981 75.5387 44.8981 76.8305V78.283C44.8981 79.5747 45.9451 80.6217 47.2368 80.6217C48.5286 80.6217 49.5756 79.5747 49.5756 78.283V76.8305C49.5756 75.5387 48.5286 74.4917 47.2368 74.4917Z" fill="#656565"/>
<path d="M47.2368 22.2536C48.5286 22.2536 49.5756 21.2065 49.5756 19.9148V18.4623C49.5756 17.1706 48.5286 16.1235 47.2368 16.1235C45.9451 16.1235 44.8981 17.1706 44.8981 18.4623V19.9148C44.8981 21.2063 45.9451 22.2536 47.2368 22.2536Z" fill="#656565"/>
<path d="M63.4912 71.848C62.8455 70.7296 61.4151 70.346 60.2962 70.992C59.1776 71.6377 58.7942 73.0683 59.44 74.1867L60.1662 75.4447C60.5995 76.1951 61.3856 76.6144 62.1938 76.6144C62.5904 76.6144 62.9927 76.5132 63.361 76.3005C64.4797 75.6547 64.863 74.2242 64.2172 73.1057L63.4912 71.848Z" fill="#656565"/>
<path d="M30.9826 24.8968C31.4159 25.6472 32.202 26.0665 33.0102 26.0665C33.4068 26.0665 33.8091 25.9653 34.1774 25.7526C35.2961 25.1068 35.6794 23.6763 35.0336 22.5578L34.3074 21.2998C33.6616 20.1812 32.2315 19.7981 31.1124 20.4438C29.9937 21.0896 29.6104 22.5202 30.2562 23.6386L30.9826 24.8968Z" fill="#656565"/>
<path d="M23.761 32.1181L22.5033 31.3918C21.3849 30.7461 19.9543 31.1292 19.3083 32.2478C18.6625 33.3665 19.0458 34.7968 20.1645 35.4426L21.4223 36.1688C21.7906 36.3815 22.1926 36.4825 22.5894 36.4825C23.3977 36.4825 24.184 36.063 24.617 35.3126C25.2628 34.1942 24.8797 32.7638 23.761 32.1181Z" fill="#656565"/>
<path d="M21.1178 48.3725C21.1178 47.0807 20.0708 46.0337 18.779 46.0337H17.3266C16.0348 46.0337 14.9878 47.0807 14.9878 48.3725C14.9878 49.6642 16.0348 50.7112 17.3266 50.7112H18.779C20.0708 50.7112 21.1178 49.6639 21.1178 48.3725Z" fill="#656565"/>
<path d="M21.4223 60.576L20.1645 61.3023C19.0458 61.9483 18.6625 63.3786 19.3083 64.497C19.7416 65.2474 20.5276 65.6669 21.3359 65.6669C21.7325 65.6669 22.1347 65.5657 22.503 65.3533L23.7608 64.627C24.8795 63.981 25.2628 62.5507 24.617 61.4323C23.9713 60.3139 22.5412 59.9303 21.4223 60.576Z" fill="#656565"/>
<path d="M60.2964 25.7527C60.6647 25.9654 61.0667 26.0666 61.4636 26.0666C62.2718 26.0666 63.0581 25.6471 63.4912 24.8969L64.2174 23.6389C64.8632 22.5203 64.4799 21.0899 63.3612 20.4442C62.2425 19.7982 60.8122 20.1815 60.1662 21.3002L59.4399 22.5582C58.7944 23.6766 59.1778 25.1069 60.2964 25.7527Z" fill="#656565"/>
<path d="M34.1774 70.9923C33.059 70.3464 31.6284 70.7294 30.9824 71.8483L30.2562 73.1063C29.6104 74.225 29.9937 75.6553 31.1124 76.3011C31.4807 76.5138 31.8827 76.615 32.2796 76.615C33.0878 76.615 33.8741 76.1955 34.3071 75.4453L35.0334 74.1873C35.6794 73.0684 35.2961 71.6381 34.1774 70.9923Z" fill="#656565"/>
</g>
<defs>
<clipPath id="clip0_720_58937">
<rect width="100" height="100" fill="white"/>
</clipPath>
</defs>
</svg>
