<svg width="100" height="100" viewBox="0 0 100 100" fill="none" xmlns="http://www.w3.org/2000/svg">
<path d="M86.965 66.5483L77.6383 79.9483L71.0566 74.5466C70.3466 73.9616 69.295 74.0683 68.7116 74.7766C68.1266 75.4883 68.23 76.54 68.9433 77.1216L76.92 83.67C77.22 83.9166 77.5933 84.05 77.9766 84.05C78.0516 84.05 78.1283 84.045 78.205 84.0333C78.665 83.97 79.0783 83.7166 79.345 83.335L89.7016 68.4533C90.2266 67.6983 90.0416 66.66 89.285 66.1333C88.5283 65.6 87.4916 65.7916 86.965 66.5483Z" fill="#656565"/>
<path d="M78.3333 54.1667C77.12 54.1667 75.9367 54.2917 74.7783 54.485C76.725 51.6633 78.3033 48.55 79.455 45.1967C81.8067 44.1167 83.3333 41.7917 83.3333 39.1667V32.5C83.3333 30.895 82.7333 29.34 81.6667 28.125V19.26C81.76 18.3433 82.1267 12.8867 78.18 8.385C74.7567 4.48 69.2017 2.5 61.6667 2.5C54.1317 2.5 48.5767 4.48 45.1533 8.38333C42.7617 11.1117 41.9567 14.185 41.7133 16.3917C38.8567 14.915 35.49 14.1667 31.6667 14.1667C14.3517 14.1667 13.3433 28.925 13.3333 29.1667V36.7983C12.2533 37.975 11.6667 39.3333 11.6667 40.6817V46.4383C11.6667 48.2367 12.4717 49.9133 13.8517 51.0467C15.2267 56.23 18.6083 60.1467 19.925 61.5217V66.0933C19.925 67.405 19.2117 68.6083 17.9733 69.285L6.885 76.24C2.63833 78.5567 0 83.0017 0 87.8383V94.1667H23.3333H26.6667H66.84C70.1767 96.2667 74.11 97.5 78.3333 97.5C90.28 97.5 100 87.78 100 75.8333C100 63.8867 90.28 54.1667 78.3333 54.1667ZM23.3333 87.1033V90.8333H3.33333V87.8383C3.33333 84.2217 5.30667 80.8983 8.56833 79.1167L19.655 72.1617C21.8767 70.95 23.2567 68.6267 23.2567 66.0933V60.1083L22.7267 59.6133C22.6833 59.5733 18.255 55.39 16.9467 49.6883L16.795 49.0283L16.225 48.6617C15.4583 48.165 15 47.3333 15 46.4383V40.6817C15 40.0817 15.4083 39.3683 16.1183 38.725L16.6667 38.23L16.6633 29.2633C16.6933 28.785 17.5617 17.5 31.6667 17.5C35.655 17.5 39.0133 18.4217 41.6667 20.24V28.125C40.6 29.34 40 30.895 40 32.5V39.1667C40 39.6733 40.0583 40.1717 40.1683 40.655C40.2133 40.8483 40.3033 41.025 40.365 41.2117C40.4567 41.4917 40.53 41.78 40.6583 42.045C40.66 42.0483 40.6617 42.05 40.6633 42.0533C41.09 42.9333 41.7117 43.72 42.495 44.3483C42.5033 44.38 42.5133 44.4083 42.5217 44.4383C42.6217 44.82 42.7267 45.2 42.84 45.5717L42.975 46.0067C42.9983 46.0833 43.0267 46.1617 43.0517 46.2383C43.11 46.4183 43.1667 46.5983 43.2267 46.775C43.3267 47.0667 43.4317 47.3667 43.5533 47.6967C43.605 47.835 43.6617 47.9567 43.715 48.0917C43.8517 48.44 43.9883 48.7767 44.1317 49.11C44.1667 49.19 44.1967 49.2767 44.2317 49.355L44.325 49.565C44.3683 49.6617 44.4133 49.7483 44.4567 49.8433C44.62 50.2 44.78 50.545 44.9467 50.88C44.9733 50.9333 44.9983 50.9917 45.025 51.045C45.13 51.2533 45.235 51.45 45.34 51.65C45.52 51.9933 45.6967 52.3167 45.8733 52.63C45.96 52.7833 46.045 52.9333 46.13 53.0783C46.37 53.4883 46.5983 53.865 46.82 54.215C46.8683 54.29 46.915 54.3683 46.9617 54.44C47.365 55.065 47.715 55.5717 48.005 55.9667C48.0817 56.0717 48.1483 56.1617 48.2133 56.25C48.25 56.2983 48.3 56.3683 48.3317 56.4117V61.9267C48.3317 63.54 47.4517 65.02 46.0367 65.7933L41.6267 68.1983L40.545 68.7883L31.1683 73.9033C26.335 76.54 23.3333 81.5967 23.3333 87.1033ZM26.6667 90.8333V87.1033C26.6667 82.8183 29.0033 78.88 32.765 76.83L47.6333 68.72C50.1217 67.3617 51.6667 64.7567 51.6667 61.925V55.2283V55.2267L51.3433 54.84L51.28 54.765C51.2767 54.76 51.1733 54.635 51.005 54.415C50.995 54.4017 50.985 54.3883 50.9733 54.375C50.885 54.26 50.7817 54.12 50.6633 53.9567C50.6617 53.9533 50.66 53.9517 50.6583 53.9483C50.41 53.6033 50.0983 53.155 49.7517 52.615C49.7433 52.6033 49.7367 52.59 49.7283 52.5783C49.565 52.3217 49.3917 52.045 49.215 51.75C49.2017 51.7283 49.1883 51.7067 49.175 51.6833C48.7983 51.0517 48.3983 50.3367 48 49.545L47.9983 49.5417C47.7867 49.1183 47.575 48.67 47.3683 48.205C47.34 48.14 47.31 48.0767 47.2817 48.0117C47.19 47.8033 47.0983 47.585 47.005 47.36C46.9717 47.2783 46.9383 47.1933 46.905 47.11C46.8183 46.8917 46.73 46.6717 46.6367 46.42C46.4667 45.9667 46.3067 45.4933 46.1533 45.005L46.0617 44.7083C46.0517 44.675 46.04 44.6417 46.03 44.6067C45.8733 44.08 45.7233 43.5417 45.5967 42.9883L45.445 42.3283L44.8767 41.9617C43.91 41.3383 43.3333 40.2933 43.3333 39.1667V32.5C43.3333 31.565 43.73 30.6933 44.45 30.0417L45 29.5467V19.1667V18.5767L44.955 18.5417C44.8983 17.3383 44.97 13.65 47.66 10.5817C50.4217 7.43 55.135 5.83333 61.6667 5.83333C68.175 5.83333 72.8783 7.41833 75.6433 10.5467C78.8883 14.215 78.3517 18.9083 78.3483 18.9483L78.3333 29.5467L78.8833 30.0433C79.6033 30.6933 80 31.565 80 32.5V39.1667C80 40.6217 79.0467 41.895 77.63 42.3317L76.8 42.5867L76.5333 43.4117C75.4183 46.88 73.83 50.0833 71.81 52.9333C71.315 53.635 70.8333 54.2567 70.415 54.7317L70 55.205V55.8383C69.58 56.0133 69.1767 56.22 68.7717 56.42C68.6683 56.4717 68.5633 56.5183 68.4617 56.57C68.0967 56.7583 67.7417 56.9583 67.39 57.165C67.205 57.2733 67.0233 57.385 66.8433 57.4967C66.5233 57.6983 66.205 57.9017 65.8967 58.12C65.6967 58.26 65.505 58.4117 65.31 58.56C64.8283 58.9233 64.3633 59.3067 63.915 59.7083C63.7 59.9017 63.4817 60.09 63.2733 60.2917C63.035 60.5233 62.8067 60.765 62.58 61.0067C62.3883 61.21 62.2 61.415 62.0167 61.6267C61.7967 61.88 61.5783 62.135 61.37 62.3967C61.1983 62.6133 61.0383 62.8367 60.875 63.0583C60.5283 63.5317 60.2017 64.0183 59.8917 64.52C59.7467 64.755 59.5967 64.9867 59.4617 65.2267C59.2933 65.5233 59.1417 65.8283 58.9883 66.1333C58.8633 66.38 58.7433 66.6283 58.6267 66.8817C58.4883 67.185 58.3533 67.4883 58.23 67.7983C58.1067 68.1033 57.9983 68.415 57.89 68.725C57.7633 69.0867 57.6417 69.45 57.535 69.8217C57.4017 70.2817 57.28 70.745 57.1767 71.215C57.125 71.4533 57.0833 71.695 57.04 71.9367C56.9617 72.3617 56.8967 72.79 56.8433 73.2217C56.8167 73.4367 56.79 73.6517 56.77 73.87C56.7067 74.52 56.6667 75.1733 56.6667 75.8333C56.6667 76.5583 56.705 77.2783 56.7767 77.99C56.8033 78.26 56.8567 78.5217 56.8933 78.7883C56.9533 79.2267 57.0067 79.665 57.0933 80.0967C57.1517 80.3883 57.235 80.6717 57.305 80.96C57.4017 81.3583 57.4917 81.7583 57.6117 82.15C57.6933 82.415 57.795 82.6717 57.8867 82.9333C58.0267 83.3383 58.165 83.745 58.33 84.14C58.4217 84.3617 58.53 84.5733 58.63 84.79C58.8217 85.2133 59.0167 85.635 59.235 86.045C59.3317 86.2233 59.44 86.395 59.5417 86.5717C59.7883 87.0033 60.0383 87.43 60.315 87.8433C60.4167 87.995 60.5283 88.1383 60.6333 88.2883C60.9267 88.705 61.2267 89.1183 61.5517 89.515C61.6717 89.6617 61.8017 89.7983 61.925 89.9417C62.1833 90.2417 62.43 90.5483 62.705 90.835H26.6667V90.8333ZM78.3333 94.1667C74.57 94.1667 71.0683 93.0233 68.155 91.07C67.5867 90.69 67.05 90.2767 66.535 89.8433C66.355 89.69 66.185 89.5267 66.0117 89.3667C65.6833 89.0683 65.365 88.7617 65.0617 88.4433C64.8667 88.2383 64.6783 88.03 64.4933 87.8183C64.22 87.5033 63.9633 87.1783 63.7133 86.8467C63.5533 86.635 63.3883 86.43 63.2367 86.2117C62.8683 85.6767 62.5217 85.1267 62.2117 84.5567C62.14 84.4233 62.0833 84.2833 62.015 84.1483C61.7717 83.6717 61.545 83.1883 61.3433 82.6917C61.2567 82.475 61.1817 82.2533 61.1017 82.0333C60.945 81.5967 60.8017 81.1533 60.6767 80.705C60.6133 80.475 60.5517 80.2433 60.4967 80.01C60.385 79.535 60.2983 79.0533 60.225 78.5683C60.1933 78.36 60.1533 78.155 60.13 77.945C60.0517 77.2467 60 76.5433 60 75.8333C60 75.2683 60.035 74.71 60.085 74.1583C60.1033 73.9617 60.13 73.7667 60.155 73.5717C60.1983 73.2217 60.2517 72.8767 60.3133 72.5317C60.3567 72.3 60.4 72.0683 60.4517 71.8383C60.5183 71.5383 60.5983 71.245 60.68 70.9517C60.7483 70.7083 60.8083 70.4617 60.8867 70.22C61.03 69.775 61.1917 69.3367 61.3683 68.9067C61.4883 68.615 61.625 68.3317 61.76 68.0483C61.8483 67.86 61.935 67.6733 62.03 67.4883C62.175 67.205 62.33 66.9267 62.49 66.6517C62.59 66.48 62.6933 66.3117 62.7983 66.145C62.97 65.87 63.1433 65.595 63.33 65.33C63.425 65.195 63.5283 65.0667 63.6267 64.9333C64.0167 64.4083 64.4333 63.905 64.8767 63.425C64.9783 63.315 65.075 63.2 65.18 63.0917C65.4083 62.8567 65.6483 62.6317 65.89 62.4083C66.0283 62.28 66.1683 62.15 66.3117 62.025C66.5617 61.8067 66.8183 61.595 67.08 61.39C67.2133 61.2867 67.35 61.1867 67.485 61.0867C67.775 60.8733 68.0667 60.66 68.3717 60.4633C68.3933 60.45 68.415 60.4367 68.4367 60.4233C69.5783 59.69 70.8133 59.0767 72.1267 58.6033C72.2367 58.5633 72.345 58.52 72.4567 58.4817L72.9483 58.3083C74.6517 57.785 76.46 57.5 78.3333 57.5C88.4417 57.5 96.6667 65.725 96.6667 75.8333C96.6667 85.9417 88.4417 94.1667 78.3333 94.1667Z" fill="#656565"/>
</svg>
